<?xml version="1.0" standalone="no"?>
<!DOCTYPE svg PUBLIC "-//W3C//DTD SVG 20010904//EN"
 "http://www.w3.org/TR/2001/REC-SVG-20010904/DTD/svg10.dtd">
<svg version="1.0" xmlns="http://www.w3.org/2000/svg"
 width="600.000000pt" height="600.000000pt" viewBox="0 0 600.000000 600.000000"
 preserveAspectRatio="xMidYMid meet">
<g transform="translate(0.000000,600.000000) scale(0.100000,-0.100000)"
fill="#000000" stroke="none">
<path d="M3548 2784 c-2 -1 -95 -4 -208 -7 -127 -2 -216 -9 -235 -16 -24 -10
-39 -10 -75 1 -36 10 -252 13 -1065 13 l-1020 0 -3 -87 -3 -88 81 0 80 0 0
-446 0 -445 -67 4 c-37 3 -73 2 -80 0 -9 -4 -13 -30 -13 -89 l0 -84 400 0 400
0 0 -330 0 -330 235 0 235 0 0 330 0 330 70 0 70 0 0 -32 c0 -54 51 -148 109
-201 92 -82 24 -77 1156 -77 l1002 0 27 25 c29 27 33 62 11 104 -17 35 -32 41
-96 41 l-49 0 0 69 0 69 143 4 c128 3 147 6 198 29 69 33 124 88 158 159 l26
55 3 340 c4 421 -1 454 -89 550 -22 24 -65 54 -102 71 l-62 29 -595 2 c-327 1
-605 4 -617 6 -13 2 -24 3 -25 1z m-525 -39 c37 -13 49 -13 91 0 149 45 293
-16 368 -158 22 -41 23 -51 26 -382 l3 -340 -71 2 -71 1 1 300 c0 256 -2 306
-16 341 -43 108 -177 140 -255 61 l-29 -28 -31 29 c-17 16 -47 33 -67 39 -24
6 -385 10 -1027 10 l-990 0 0 70 0 70 1012 0 c863 0 1019 -2 1056 -15z m720
-16 c89 -59 147 -145 159 -237 l3 -24 -187 -1 -186 -2 -11 56 c-18 91 -95 190
-175 225 -27 12 -9 13 160 14 l191 0 46 -31z m1109 -2 c88 -43 152 -129 164
-219 l6 -43 -550 0 -550 0 -6 42 c-8 64 -52 140 -112 201 l-54 53 523 -3 522
-3 57 -28z m-1851 -149 c21 -11 44 -34 52 -50 l14 -30 22 35 c54 89 186 85
241 -6 19 -30 20 -52 20 -347 l0 -315 -346 3 c-433 4 -470 -4 -575 -112 l-36
-38 -92 -1 -91 -2 0 142 0 143 170 0 c111 0 170 4 170 10 0 7 -57 10 -167 9
l-168 -1 -3 211 -2 211 170 0 c93 0 170 3 170 8 0 8 -1099 7 -1108 -2 -3 -3
63 -6 146 -6 l152 0 0 -212 0 -213 -150 3 c-102 2 -150 0 -150 -7 0 -7 50 -11
150 -11 l150 0 0 -142 0 -143 -310 0 -310 0 -2 443 -3 442 924 0 923 0 39 -22z
m904 -418 l0 -289 -188 -3 -187 -3 0 293 0 292 188 0 187 0 0 -290z m1115 -7
l0 -296 -317 6 c-174 4 -421 7 -550 7 l-233 0 0 290 0 290 550 0 550 0 0 -297z
m-2820 -418 c0 -388 -2 -705 -6 -705 -9 0 -408 232 -423 246 -12 11 -15 109
-19 573 -2 309 -2 568 2 576 5 13 38 15 226 15 l220 0 0 -705z m1233 94 c-65
-32 -140 -119 -159 -186 -45 -154 27 -319 166 -383 l45 -20 -445 2 -445 3 -57
28 c-109 54 -171 152 -171 272 0 94 29 160 98 223 87 80 88 80 580 81 l430 1
-42 -21z m1188 10 c48 -25 44 -105 -7 -128 -18 -8 -178 -11 -555 -11 -526 1
-530 1 -565 -20 -42 -27 -74 -86 -74 -138 0 -46 31 -97 79 -129 l34 -23 529 0
c600 0 587 2 588 -77 0 -22 -8 -38 -27 -53 -27 -21 -30 -21 -572 -18 -531 3
-547 4 -592 24 -94 44 -148 110 -174 213 -18 69 -9 144 25 211 33 63 114 128
190 151 40 12 1098 11 1121 -2z m377 -56 c-6 -24 -14 -40 -19 -37 -5 3 -6 -3
-2 -12 4 -12 3 -15 -5 -10 -7 4 -10 2 -7 -6 3 -8 -6 -25 -19 -37 -14 -13 -23
-28 -20 -32 2 -4 -4 -6 -16 -4 -11 2 -23 -1 -26 -7 -5 -7 -2 -8 7 -3 12 7 12
6 1 -7 -24 -30 -183 -84 -166 -56 5 7 3 8 -7 2 -8 -4 -55 -9 -106 -9 -78 0
-90 2 -80 14 10 12 9 14 -6 8 -13 -5 -16 -3 -10 6 4 6 8 28 8 47 0 28 4 35 20
37 84 7 110 12 113 24 3 10 1 10 -7 -1 -6 -8 -11 -11 -11 -7 0 15 37 57 44 50
3 -4 4 11 1 32 -2 21 -10 42 -17 47 -17 10 -17 10 159 8 98 -1 143 2 148 10 6
9 11 8 21 -2 10 -10 11 -22 2 -55z m-3258 -158 l0 -75 -392 2 -393 3 0 72 0
73 393 0 392 0 0 -75z m640 71 c0 -2 -7 -23 -15 -46 -8 -23 -15 -55 -15 -71
l0 -29 -70 0 -70 0 0 75 0 75 85 0 c47 0 85 -2 85 -4z m2120 -76 l0 -71 -220
3 c-121 2 -220 0 -220 -4 0 -5 98 -8 218 -8 l217 0 -3 -70 -4 -70 -456 0
c-270 0 -472 4 -493 10 -97 27 -135 154 -67 227 47 52 48 52 556 53 l472 0 0
-70z m-2710 -395 c-10 -12 -7 -14 18 -10 20 2 32 -2 36 -11 3 -8 13 -14 21
-14 10 0 13 -5 9 -12 -5 -8 -2 -9 9 -5 19 7 33 -9 15 -17 -7 -4 -3 -4 10 -2
12 2 22 0 22 -5 0 -4 7 -5 17 -2 12 5 14 3 8 -7 -6 -10 -4 -12 8 -7 10 3 17 2
17 -3 0 -5 9 -12 20 -15 11 -4 18 -11 15 -16 -3 -5 1 -6 9 -3 9 3 16 1 16 -5
0 -6 7 -11 16 -11 8 0 12 -4 9 -10 -3 -5 0 -7 9 -4 8 3 23 1 33 -6 16 -10 15
-10 -4 -5 -13 4 -23 4 -23 1 0 -3 18 -10 40 -16 22 -6 40 -15 40 -21 0 -6 5
-7 12 -3 8 5 9 2 5 -9 -3 -10 -3 -17 1 -17 4 0 5 -21 3 -47 -2 -27 -5 -43 -7
-38 -3 6 -77 9 -203 7 l-200 -3 -3 157 c-3 130 -1 157 12 165 22 12 24 11 10
-6z"/>
<path d="M3343 2585 c0 -8 4 -12 9 -9 5 3 6 10 3 15 -9 13 -12 11 -12 -6z"/>
<path d="M3457 2497 c-3 -8 1 -14 8 -14 7 0 11 6 8 14 -3 7 -6 13 -8 13 -2 0
-5 -6 -8 -13z"/>
<path d="M3773 2655 c0 -8 4 -15 9 -15 4 0 8 4 8 9 0 6 -4 12 -8 15 -5 3 -9
-1 -9 -9z"/>
<path d="M3876 2702 c-2 -4 4 -8 14 -8 10 0 16 4 14 8 -3 4 -9 8 -14 8 -5 0
-11 -4 -14 -8z"/>
<path d="M3897 2657 c-3 -8 1 -14 8 -14 7 0 11 6 8 14 -3 7 -6 13 -8 13 -2 0
-5 -6 -8 -13z"/>
<path d="M2403 1825 c0 -8 4 -12 9 -9 5 3 6 10 3 15 -9 13 -12 11 -12 -6z"/>
<path d="M1840 2230 l0 -90 135 0 136 0 -3 88 -3 87 -132 3 -133 3 0 -91z
m250 -5 l0 -75 -120 0 -120 0 0 75 0 75 120 0 120 0 0 -75z"/>
<path d="M1840 1930 l0 -90 135 0 135 0 0 90 0 90 -135 0 -135 0 0 -90z m250
-5 l0 -75 -120 0 -120 0 0 75 0 75 120 0 120 0 0 -75z"/>
<path d="M1880 1916 c0 -2 7 -7 16 -10 8 -3 12 -2 9 4 -6 10 -25 14 -25 6z"/>
<path d="M2159 1723 c-13 -16 -12 -17 4 -4 9 7 17 15 17 17 0 8 -8 3 -21 -13z"/>
<path d="M1840 1630 l0 -90 135 0 136 0 -3 88 -3 87 -132 3 -133 3 0 -91z
m250 -5 l0 -75 -120 0 -120 0 0 75 0 75 120 0 120 0 0 -75z"/>
<path d="M2156 1592 c-3 -5 1 -9 9 -9 8 0 12 4 9 9 -3 4 -7 8 -9 8 -2 0 -6 -4
-9 -8z"/>
<path d="M2540 1780 c8 -5 20 -10 25 -10 6 0 3 5 -5 10 -8 5 -19 10 -25 10 -5
0 -3 -5 5 -10z"/>
<path d="M2456 1721 c-3 -5 2 -15 12 -22 15 -12 16 -12 5 2 -7 9 -10 19 -6 22
3 4 4 7 0 7 -3 0 -8 -4 -11 -9z"/>
<path d="M2447 1423 c3 -7 6 -13 8 -13 2 0 5 6 8 13 3 8 -1 14 -8 14 -7 0 -11
-6 -8 -14z"/>
<path d="M3415 1669 c-4 -6 -5 -12 -2 -15 2 -3 7 2 10 11 7 17 1 20 -8 4z"/>
<path d="M3301 1524 c0 -11 3 -14 6 -6 3 7 2 16 -1 19 -3 4 -6 -2 -5 -13z"/>
</g>
</svg>
