<svg xmlns="http://www.w3.org/2000/svg" width="500" height="500" viewBox="0 0 500 500">
<g>
<path d="M 130.92 374.22 C123.98,381.37 121.77,382.32 119.96,378.93 C118.97,377.07 119.97,375.72 129.43,366.12 C135.24,360.22 140.00,354.94 140.00,354.38 C140.00,353.83 138.65,352.08 137.00,350.50 C135.35,348.92 134.00,347.14 134.00,346.55 C134.00,345.95 138.95,340.53 145.00,334.50 C151.05,328.47 156.00,323.05 156.00,322.45 C156.00,321.86 154.64,320.07 152.98,318.48 C151.33,316.90 150.09,315.25 150.23,314.83 C150.38,314.40 191.45,273.06 241.50,222.95 L 332.50 131.84 L 329.23 128.92 C326.61,126.57 325.05,126.00 321.27,126.00 L 316.57 126.00 L 281.27 161.24 C250.94,191.53 245.74,196.32 244.24,195.38 C243.28,194.78 242.50,193.55 242.50,192.66 C242.50,191.76 258.24,175.27 277.47,156.00 C313.44,119.97 314.59,119.02 322.18,119.01 C326.10,119.00 329.84,120.66 333.84,124.17 L 337.37 127.26 L 340.70 123.63 C344.31,119.69 347.30,119.06 350.15,121.64 C351.85,123.18 352.35,122.90 358.53,116.89 C362.14,113.37 365.58,110.33 366.16,110.13 C367.60,109.63 390.00,132.07 390.00,134.01 C390.00,134.86 387.10,138.43 383.56,141.94 L 377.11 148.33 L 379.06 150.80 C380.13,152.16 381.00,153.77 381.00,154.37 C381.00,155.80 186.86,350.00 185.43,350.00 C184.84,350.00 183.29,348.88 182.00,347.50 C180.71,346.12 178.93,345.00 178.06,345.00 C177.18,345.00 171.76,349.73 166.00,355.50 C160.24,361.27 154.87,366.00 154.07,366.00 C153.26,366.00 151.13,364.58 149.34,362.85 L 146.09 359.69 L 141.79 363.57 C139.43,365.70 134.54,370.50 130.92,374.22 ZM 171.93 328.43 L 185.34 341.86 L 238.92 288.07 C268.39,258.48 294.51,232.18 296.97,229.63 L 301.44 224.97 L 288.99 212.49 C282.14,205.62 275.85,200.00 275.01,200.00 C274.18,200.00 247.62,225.87 216.01,257.49 L 158.52 314.99 ZM 292.49 206.99 C299.63,214.15 305.85,220.00 306.31,220.00 C307.35,220.00 372.00,155.25 372.00,154.21 C372.00,153.80 366.15,147.63 358.99,140.49 L 345.99 127.52 L 312.75 160.75 L 279.52 193.99 ZM 365.57 388.11 C361.70,389.87 356.51,389.96 259.29,389.98 C161.79,390.00 157.03,389.92 156.10,388.20 C155.57,387.20 155.47,385.86 155.86,385.22 C156.41,384.34 181.88,383.98 258.54,383.77 C359.76,383.50 360.53,383.48 364.50,381.41 C369.25,378.93 373.93,371.96 374.70,366.22 C375.74,358.43 371.04,350.29 363.54,346.88 C360.09,345.31 356.77,345.04 340.72,345.02 C321.32,345.00 317.16,344.31 314.09,340.60 C312.86,339.13 312.88,338.69 314.25,337.33 C315.68,335.89 316.25,335.90 320.59,337.38 C324.27,338.63 329.34,339.00 342.93,339.01 C352.65,339.01 362.29,339.50 364.50,340.12 C370.17,341.68 378.42,350.13 379.99,355.96 C383.70,369.77 378.01,382.46 365.57,388.11 ZM 310.03 323.99 C309.63,328.86 309.10,330.56 307.91,330.78 C305.27,331.29 303.71,328.25 303.71,322.59 C303.71,312.83 309.46,304.74 318.75,301.43 C321.37,300.49 328.35,300.07 342.00,300.04 C363.97,299.99 366.16,299.40 369.33,292.72 C373.84,283.22 368.12,273.00 358.30,273.00 C352.98,273.00 350.00,271.59 350.00,269.07 C350.00,266.79 351.91,265.99 357.33,266.02 C362.44,266.05 368.60,268.79 372.19,272.62 C380.13,281.13 378.55,295.88 368.99,302.51 C363.29,306.46 359.82,307.00 340.22,307.00 C323.86,307.00 321.50,307.21 317.98,309.01 C312.95,311.58 310.68,315.84 310.03,323.99 ZM 147.71 352.22 C150.30,354.85 152.88,357.00 153.44,357.00 C154.75,357.00 172.00,339.86 172.00,338.56 C172.00,337.22 162.84,328.00 161.52,328.00 C160.21,328.00 143.00,345.18 143.00,346.49 C143.00,347.01 145.12,349.58 147.71,352.22 ZM 364.01 135.51 C368.10,139.63 371.84,143.00 372.31,143.00 C372.79,143.00 375.13,140.86 377.52,138.25 L 381.86 133.50 L 374.71 126.25 C370.77,122.26 367.07,119.00 366.48,119.00 C365.90,119.00 363.43,121.03 360.99,123.51 L 356.57 128.02 ZM 142.89 388.63 C142.03,389.67 138.40,390.00 127.63,389.98 C119.86,389.98 112.89,389.58 112.15,389.11 C111.41,388.64 110.97,387.41 111.16,386.38 C111.50,384.65 112.77,384.48 127.15,384.23 C140.90,383.98 142.84,384.15 143.40,385.60 C143.75,386.51 143.52,387.87 142.89,388.63 ZM 339.96 271.55 C339.16,272.51 336.81,273.00 333.00,273.00 C326.89,273.00 324.55,271.59 325.18,268.30 C325.48,266.76 326.60,266.50 333.00,266.50 C339.40,266.50 340.52,266.76 340.82,268.30 C341.01,269.29 340.62,270.75 339.96,271.55 Z" fill="rgb(5,5,5)"/>
<path d="M 0.00 250.00 L 0.00 0.00 L 250.00 0.00 L 500.00 0.00 L 500.00 250.00 L 500.00 500.00 L 250.00 500.00 L 0.00 500.00 L 0.00 250.00 ZM 142.89 388.63 C143.52,387.87 143.75,386.51 143.40,385.60 C142.84,384.15 140.90,383.98 127.15,384.23 C112.77,384.48 111.50,384.65 111.16,386.38 C110.97,387.41 111.41,388.64 112.15,389.11 C112.89,389.58 119.86,389.98 127.63,389.98 C138.40,390.00 142.03,389.67 142.89,388.63 ZM 365.57 388.11 C378.01,382.46 383.70,369.77 379.99,355.96 C378.42,350.13 370.17,341.68 364.50,340.12 C362.29,339.50 352.65,339.01 342.93,339.01 C329.34,339.00 324.27,338.63 320.59,337.38 C316.25,335.90 315.68,335.89 314.25,337.33 C312.88,338.69 312.86,339.13 314.09,340.60 C317.16,344.31 321.32,345.00 340.72,345.02 C356.77,345.04 360.09,345.31 363.54,346.88 C371.04,350.29 375.74,358.43 374.70,366.22 C373.93,371.96 369.25,378.93 364.50,381.41 C360.53,383.48 359.76,383.50 258.54,383.77 C181.88,383.98 156.41,384.34 155.86,385.22 C155.47,385.86 155.57,387.20 156.10,388.20 C157.03,389.92 161.79,390.00 259.29,389.98 C356.51,389.96 361.70,389.87 365.57,388.11 ZM 130.92 374.22 C134.54,370.50 139.43,365.70 141.79,363.57 L 146.09 359.69 L 149.34 362.85 C151.13,364.58 153.26,366.00 154.07,366.00 C154.87,366.00 160.24,361.27 166.00,355.50 C171.76,349.73 177.18,345.00 178.06,345.00 C178.93,345.00 180.71,346.12 182.00,347.50 C183.29,348.88 184.84,350.00 185.43,350.00 C186.86,350.00 381.00,155.80 381.00,154.37 C381.00,153.77 380.13,152.16 379.06,150.80 L 377.11 148.33 L 383.56 141.94 C387.10,138.43 390.00,134.86 390.00,134.01 C390.00,132.07 367.60,109.63 366.16,110.13 C365.58,110.33 362.14,113.37 358.53,116.89 C352.35,122.90 351.85,123.18 350.15,121.64 C347.30,119.06 344.31,119.69 340.70,123.63 L 337.37 127.26 L 333.84 124.17 C329.84,120.66 326.10,119.00 322.18,119.01 C314.59,119.02 313.44,119.97 277.47,156.00 C258.24,175.27 242.50,191.76 242.50,192.66 C242.50,193.55 243.28,194.78 244.24,195.38 C245.74,196.32 250.94,191.53 281.27,161.24 L 316.57 126.00 L 321.27 126.00 C325.05,126.00 326.61,126.57 329.23,128.92 L 332.50 131.84 L 241.50 222.95 C191.45,273.06 150.38,314.40 150.23,314.83 C150.09,315.25 151.33,316.90 152.98,318.48 C154.64,320.07 156.00,321.86 156.00,322.45 C156.00,323.05 151.05,328.47 145.00,334.50 C138.95,340.53 134.00,345.95 134.00,346.55 C134.00,347.14 135.35,348.92 137.00,350.50 C138.65,352.08 140.00,353.83 140.00,354.38 C140.00,354.94 135.24,360.22 129.43,366.12 C119.97,375.72 118.97,377.07 119.96,378.93 C121.77,382.32 123.98,381.37 130.92,374.22 ZM 310.03 323.99 C310.68,315.84 312.95,311.58 317.98,309.01 C321.50,307.21 323.86,307.00 340.22,307.00 C359.82,307.00 363.29,306.46 368.99,302.51 C378.55,295.88 380.13,281.13 372.19,272.62 C368.60,268.79 362.44,266.05 357.33,266.02 C351.91,265.99 350.00,266.79 350.00,269.07 C350.00,271.59 352.98,273.00 358.30,273.00 C368.12,273.00 373.84,283.22 369.33,292.72 C366.16,299.40 363.97,299.99 342.00,300.04 C328.35,300.07 321.37,300.49 318.75,301.43 C309.46,304.74 303.71,312.83 303.71,322.59 C303.71,328.25 305.27,331.29 307.91,330.78 C309.10,330.56 309.63,328.86 310.03,323.99 ZM 339.96 271.55 C340.62,270.75 341.01,269.29 340.82,268.30 C340.52,266.76 339.40,266.50 333.00,266.50 C326.60,266.50 325.48,266.76 325.18,268.30 C324.55,271.59 326.89,273.00 333.00,273.00 C336.81,273.00 339.16,272.51 339.96,271.55 ZM 147.71 352.22 C145.12,349.58 143.00,347.01 143.00,346.49 C143.00,345.18 160.21,328.00 161.52,328.00 C162.84,328.00 172.00,337.22 172.00,338.56 C172.00,339.86 154.75,357.00 153.44,357.00 C152.88,357.00 150.30,354.85 147.71,352.22 ZM 171.93 328.43 L 158.52 314.99 L 216.01 257.49 C247.62,225.87 274.18,200.00 275.01,200.00 C275.85,200.00 282.14,205.62 288.99,212.49 L 301.44 224.97 L 296.97 229.63 C294.51,232.18 268.39,258.48 238.92,288.07 L 185.34 341.86 L 171.93 328.43 ZM 292.49 206.99 L 279.52 193.99 L 312.75 160.75 L 345.99 127.52 L 358.99 140.49 C366.15,147.63 372.00,153.80 372.00,154.21 C372.00,155.25 307.35,220.00 306.31,220.00 C305.85,220.00 299.63,214.15 292.49,206.99 ZM 364.01 135.51 L 356.57 128.02 L 360.99 123.51 C363.43,121.03 365.90,119.00 366.48,119.00 C367.07,119.00 370.77,122.26 374.71,126.25 L 381.86 133.50 L 377.52 138.25 C375.13,140.86 372.79,143.00 372.31,143.00 C371.84,143.00 368.10,139.63 364.01,135.51 Z" fill="rgb(254,254,254)"/>
</g>
</svg>